<svg width="100" height="100" viewBox="0 0 100 100" fill="none" xmlns="http://www.w3.org/2000/svg">
<path d="M70.5 25.5H28.4891C26.5641 25.5 25 27.0859 25 29.0328V70.9672C25 72.9141 26.5641 74.5 28.4891 74.5H70.5C72.425 74.5 74 72.9141 74 70.9672V29.0328C74 27.0859 72.425 25.5 70.5 25.5ZM39.8094 67.5H32.5469V44.1156H39.8203V67.5H39.8094ZM36.1781 40.9219C33.8484 40.9219 31.9672 39.0297 31.9672 36.7109C31.9672 34.3922 33.8484 32.5 36.1781 32.5C38.4969 32.5 40.3891 34.3922 40.3891 36.7109C40.3891 39.0406 38.5078 40.9219 36.1781 40.9219V40.9219ZM67.0328 67.5H59.7703V56.125C59.7703 53.4125 59.7156 49.9234 55.9969 49.9234C52.2125 49.9234 51.6328 52.8766 51.6328 55.9281V67.5H44.3703V44.1156H51.3375V47.3094H51.4359C52.4094 45.4719 54.7828 43.5359 58.3156 43.5359C65.6656 43.5359 67.0328 48.3812 67.0328 54.6812V67.5V67.5Z" fill="#004FD1"/>
</svg>
