<svg width="100" height="100" viewBox="0 0 100 100" fill="none" xmlns="http://www.w3.org/2000/svg">
<g clip-path="url(#clip0_1646_13694)">
<path d="M34.7273 71.7834V49.234L28.0172 42.8362L22 39.2859V67.804C22 70.0059 23.7117 71.7834 25.8183 71.7834H34.7273V71.7834Z" fill="#4285F4"/>
<path d="M65.2727 71.7834H74.1817C76.2946 71.7834 78 69.9993 78 67.8041V39.2861L71.1846 43.3526L65.2727 49.234V71.7834V71.7834Z" fill="#34A853"/>
<path d="M34.7273 49.234L33.8143 40.4233L34.7273 31.9906L50 43.9285L65.2727 31.9906L66.2941 39.9681L65.2727 49.234L50 61.1719L34.7273 49.234Z" fill="#EA4335"/>
<path d="M65.2727 31.9906V49.234L78 39.2859V33.9802C78 29.0592 72.61 26.254 68.8366 29.2052L65.2727 31.9906Z" fill="#FBBC04"/>
<path d="M22 39.2856L27.8535 43.8611L34.7273 49.2337V31.9902L31.1634 29.2048C27.3834 26.2533 22 29.0589 22 33.9796V39.2853V39.2856Z" fill="#C5221F"/>
</g>
<defs>
<clipPath id="clip0_1646_13694">
<rect width="56" height="44" fill="white" transform="translate(22 28)"/>
</clipPath>
</defs>
</svg>
