<svg width="100" height="100" viewBox="0 0 100 100" fill="none" xmlns="http://www.w3.org/2000/svg">
<rect width="100" height="100" rx="50" fill="black" fill-opacity="0.1"/>
<path fill-rule="evenodd" clip-rule="evenodd" d="M50 55.25C53.713 55.25 57.274 53.775 59.8995 51.1495C62.525 48.524 64 44.963 64 41.25C64 37.537 62.525 33.976 59.8995 31.3505C57.274 28.725 53.713 27.25 50 27.25C46.287 27.25 42.726 28.725 40.1005 31.3505C37.475 33.976 36 37.537 36 41.25C36 44.963 37.475 48.524 40.1005 51.1495C42.726 53.775 46.287 55.25 50 55.25ZM50 51.75C51.3789 51.75 52.7443 51.4784 54.0182 50.9507C55.2921 50.4231 56.4496 49.6496 57.4246 48.6746C58.3996 47.6996 59.1731 46.5421 59.7007 45.2682C60.2284 43.9943 60.5 42.6289 60.5 41.25C60.5 39.8711 60.2284 38.5057 59.7007 37.2318C59.1731 35.9579 58.3996 34.8004 57.4246 33.8254C56.4496 32.8504 55.2921 32.0769 54.0182 31.5493C52.7443 31.0216 51.3789 30.75 50 30.75C47.2152 30.75 44.5445 31.8562 42.5754 33.8254C40.6062 35.7945 39.5 38.4652 39.5 41.25C39.5 44.0348 40.6062 46.7055 42.5754 48.6746C44.5445 50.6438 47.2152 51.75 50 51.75Z" fill="white"/>
<path fill-rule="evenodd" clip-rule="evenodd" d="M85 50C85 69.3305 69.3305 85 50 85C30.6695 85 15 69.3305 15 50C15 30.6695 30.6695 15 50 15C69.3305 15 85 30.6695 85 50ZM66.8525 76.6175C61.8142 79.8158 55.9677 81.5096 50 81.5C43.8892 81.5098 37.9088 79.7337 32.794 76.39C32.374 75.865 31.9487 75.3225 31.5165 74.7625C31.0169 74.1062 30.7475 73.3036 30.75 72.4788C30.75 70.594 32.1045 69.0138 33.9158 68.7495C45.8945 66.9995 54.1423 67.15 66.1368 68.8108C67.0054 68.9367 67.7991 69.3726 68.3714 70.0382C68.9436 70.7037 69.2557 71.5538 69.25 72.4315C69.25 73.2715 68.9612 74.087 68.4397 74.724C67.9025 75.3785 67.3723 76.0102 66.8525 76.6175ZM72.7238 71.8155C72.4438 68.5395 69.957 65.806 66.6162 65.344C54.3382 63.6448 45.7563 63.482 33.41 65.2863C30.05 65.7763 27.5738 68.5342 27.2798 71.819C21.6366 65.9584 18.4889 58.1359 18.5 50C18.5 32.6033 32.6033 18.5 50 18.5C67.3967 18.5 81.5 32.6033 81.5 50C81.5112 58.1342 78.3648 65.9552 72.7238 71.8155Z" fill="white"/>
</svg>
