<svg width="100" height="100" viewBox="0 0 100 100" fill="none" xmlns="http://www.w3.org/2000/svg">
<rect width="100" height="100" rx="50" fill="black" fill-opacity="0.1"/>
<path fill-rule="evenodd" clip-rule="evenodd" d="M55.6667 33.0001V27.3334H44.3333V33.0001H55.6667ZM27.3333 38.6667V69.8334H72.6667V38.6667H27.3333ZM72.6667 33.0001C75.8117 33.0001 78.3333 35.5217 78.3333 38.6667V69.8334C78.3333 72.9784 75.8117 75.5001 72.6667 75.5001H27.3333C24.1883 75.5001 21.6667 72.9784 21.6667 69.8334L21.695 38.6667C21.695 35.5217 24.1883 33.0001 27.3333 33.0001H38.6667V27.3334C38.6667 24.1884 41.1883 21.6667 44.3333 21.6667H55.6667C58.8117 21.6667 61.3333 24.1884 61.3333 27.3334V33.0001H72.6667Z" fill="white"/>
</svg>
